<svg width="300" height="300" viewBox="0 0 300 300" fill="none" xmlns="http://www.w3.org/2000/svg">
<rect width="300" height="300" fill="#030911"/>
<g clip-path="url(#clip0_2_23)">
<path d="M50.6722 181.345C33.1795 181.345 18.9998 167.165 18.9998 149.672L18.9998 127.502C18.9998 124.982 20.0008 122.565 21.7827 120.783C23.5646 119.001 25.9815 118 28.5015 118L49.0886 118L49.0886 131.895C49.0886 135.065 48.8954 138.35 47.2326 141.048C46.042 142.982 44.4496 144.637 42.5631 145.901C40.6767 147.166 38.5404 148.009 36.2993 148.375L35.6928 148.474C35.4427 148.559 35.2256 148.721 35.0718 148.936C34.9182 149.15 34.8355 149.408 34.8355 149.672C34.8355 149.937 34.9182 150.194 35.0718 150.409C35.2256 150.624 35.4427 150.786 35.6928 150.871L36.2993 150.969C39.5739 151.504 42.5978 153.054 44.944 155.401C47.2902 157.747 48.8403 160.771 49.3752 164.045L49.4734 164.652C49.5588 164.902 49.7203 165.119 49.9354 165.273C50.1503 165.426 50.4079 165.509 50.6722 165.509C50.9364 165.509 51.194 165.426 51.4089 165.273C51.624 165.119 51.7855 164.902 51.871 164.652L51.9692 164.045C52.335 161.804 53.1788 159.668 54.4432 157.781C55.7074 155.895 57.3626 154.302 59.2966 153.112C61.9951 151.449 65.2796 151.256 68.4499 151.256L82.3066 151.256C81.4783 168.012 67.6327 181.345 50.6722 181.345Z" fill="#5CA9FF"/>
<path d="M82.3449 148.089L68.4502 148.089C65.2798 148.089 61.9953 147.896 59.2969 146.233C57.1875 144.933 55.4119 143.157 54.1121 141.048C52.4493 138.35 52.2561 135.065 52.2561 131.895L52.2561 118L72.8432 118C75.3632 118 77.78 119.001 79.5619 120.783C81.3438 122.565 82.3449 124.982 82.3449 127.502L82.3449 148.089ZM19 178.178C19 177.338 19.3337 176.532 19.9277 175.938C20.5217 175.344 21.3273 175.01 22.1673 175.01C23.0072 175.01 23.8128 175.344 24.4068 175.938C25.0008 176.532 25.3345 177.338 25.3345 178.178C25.3345 179.018 25.0008 179.823 24.4068 180.417C23.8128 181.011 23.0072 181.345 22.1673 181.345C21.3273 181.345 20.5217 181.011 19.9277 180.417C19.3337 179.823 19 179.018 19 178.178Z" fill="#5CA9FF"/>
</g>
<path d="M107.347 162.912C105.383 162.912 103.477 162.626 101.627 162.056C99.7774 161.486 98.2127 160.656 96.9332 159.567L99.6127 155.348C100.195 155.931 100.911 156.431 101.76 156.849C102.622 157.267 103.534 157.591 104.497 157.819C105.472 158.034 106.429 158.142 107.366 158.142C108.81 158.142 109.982 157.888 110.882 157.382C111.781 156.875 112.231 156.134 112.231 155.158C112.231 154.373 111.914 153.72 111.281 153.201C110.647 152.669 109.469 152.162 107.746 151.68L105.314 150.996C102.641 150.249 100.715 149.235 99.5366 147.956C98.3584 146.676 97.7693 145.124 97.7693 143.3C97.7693 142.109 98.0164 141.02 98.5105 140.031C99.0045 139.043 99.695 138.188 100.582 137.466C101.481 136.744 102.539 136.186 103.755 135.794C104.984 135.388 106.315 135.185 107.746 135.185C109.684 135.185 111.483 135.471 113.143 136.041C114.815 136.598 116.171 137.365 117.21 138.34L114.435 142.426C113.929 141.919 113.314 141.482 112.592 141.115C111.883 140.747 111.11 140.462 110.274 140.259C109.437 140.044 108.595 139.936 107.746 139.936C106.834 139.936 106.029 140.063 105.333 140.316C104.649 140.557 104.116 140.912 103.736 141.381C103.356 141.837 103.166 142.388 103.166 143.034C103.166 143.528 103.299 143.952 103.565 144.307C103.844 144.649 104.307 144.972 104.953 145.276C105.611 145.58 106.511 145.897 107.651 146.226L110.16 146.968C112.795 147.74 114.708 148.722 115.899 149.913C117.09 151.104 117.685 152.65 117.685 154.55C117.685 156.197 117.267 157.654 116.431 158.921C115.607 160.175 114.416 161.157 112.858 161.866C111.312 162.563 109.475 162.912 107.347 162.912Z" fill="white"/>
<path d="M122.389 162.341V135.737H140.575V140.639H128.014V146.341H138.656V150.882H128.014V157.382H140.727V162.341H122.389Z" fill="white"/>
<path d="M146.255 162.341V135.737H151.766L163.529 153.049V135.737H169.002V162.341H163.491L151.709 144.801V162.341H146.255Z" fill="white"/>
<path d="M180.254 162.341V140.868H173.033V135.737H193.138V140.868H185.917V162.341H180.254Z" fill="white"/>
<path d="M197.215 162.341V135.737H202.84V162.341H197.215Z" fill="white"/>
<path d="M209.315 162.341V135.737H214.826L226.589 153.049V135.737H232.062V162.341H226.551L214.769 144.801V162.341H209.315Z" fill="white"/>
<path d="M238.525 162.341V135.737H256.712V140.639H244.15V146.341H254.792V150.882H244.15V157.382H256.864V162.341H238.525Z" fill="white"/>
<path d="M262.391 162.341V135.737H268.016V157.191H279V162.341H262.391Z" fill="white"/>
<defs>
<clipPath id="clip0_2_23">
<rect width="63.3449" height="63.3449" fill="white" transform="translate(82.3449 181.345) rotate(-180)"/>
</clipPath>
</defs>
</svg>
